<svg preserveAspectRatio="none" width="100%" height="100%" overflow="visible" style="display: block;" viewBox="0 0 16 14" fill="none" xmlns="http://www.w3.org/2000/svg">
<path id="Vector" d="M8 2.21894L7.59784 2.60799C7.60037 2.61059 7.6029 2.61317 7.60543 2.61572L8 2.21894ZM9.0938 4.11125C9.31178 4.3303 9.66519 4.33023 9.88309 4.1111C10.1011 3.89197 10.101 3.53674 9.88294 3.31769L9.0938 4.11125ZM6.0845 11.8097C4.95657 10.9159 3.72321 10.0431 2.74477 8.93566C1.78547 7.84982 1.11628 6.58287 1.11628 4.93914H0C0 6.93303 0.826419 8.45415 1.91012 9.6807C2.97468 10.8856 4.33174 11.8496 5.39343 12.6909L6.0845 11.8097ZM1.11628 4.93914C1.11628 3.33022 2.02074 1.98098 3.25534 1.41373C4.45475 0.862641 6.06635 1.00858 7.59784 2.60799L8.40216 1.82989C6.58493 -0.067883 4.4756 -0.380658 2.79126 0.393235C1.14211 1.15096 0 2.91042 0 4.93914H1.11628ZM5.39343 12.6909C5.77462 12.9929 6.18384 13.315 6.59855 13.5586C7.01314 13.8021 7.48621 14 8 14V12.8779C7.7696 12.8779 7.49849 12.7877 7.16175 12.5898C6.82515 12.3921 6.47597 12.1199 6.0845 11.8097L5.39343 12.6909ZM10.6066 12.6909C11.6682 11.8496 13.0253 10.8856 14.0899 9.6807C15.1736 8.45415 16 6.93303 16 4.93914H14.8837C14.8837 6.58287 14.2145 7.84982 13.2552 8.93566C12.2768 10.0431 11.0434 10.9159 9.91554 11.8097L10.6066 12.6909ZM16 4.93914C16 2.91042 14.8579 1.15096 13.2087 0.393235C11.5244 -0.380658 9.41507 -0.067883 7.59784 1.82989L8.40216 2.60799C9.93362 1.00858 11.5452 0.862641 12.7446 1.41373C13.9792 1.98098 14.8837 3.33022 14.8837 4.93914H16ZM9.91554 11.8097C9.52402 12.1199 9.17485 12.3921 8.83825 12.5898C8.50151 12.7877 8.2304 12.8779 8 12.8779V14C8.51379 14 8.98686 13.8021 9.40145 13.5586C9.81619 13.315 10.2253 12.9929 10.6066 12.6909L9.91554 11.8097ZM7.60543 2.61572L9.0938 4.11125L9.88294 3.31769L8.39457 1.82217L7.60543 2.61572Z" fill="var(--fill-0, #9CA3AF)"/>
</svg>
