<svg preserveAspectRatio="none" width="100%" height="100%" overflow="visible" style="display: block;" viewBox="0 0 4.85237 6.46639" fill="none" xmlns="http://www.w3.org/2000/svg">
<path id="Trazado 14" d="M4.27834 6.40104C3.24103 5.2029 2.21703 3.9933 1.20632 2.77224C0.739308 2.23984 0.374144 1.62572 0.129115 0.960636C0.0253984 0.651891 -0.0164952 0.325651 0.0058363 0.000635268C0.1981 -0.00513739 0.389517 0.0284823 0.568375 0.0994359C1.47761 0.465836 2.10119 1.28584 2.66094 2.05504C3.23941 2.85867 3.76081 3.70209 4.22129 4.57904C4.50589 5.0238 4.71637 5.51206 4.84447 6.02464C4.85961 6.09637 4.8529 6.17101 4.82523 6.23888C4.79756 6.30675 4.75019 6.36472 4.68927 6.40528C4.62835 6.44584 4.55668 6.46712 4.48355 6.46637C4.41043 6.46561 4.33921 6.44285 4.27914 6.40104" fill="var(--fill-0, #4A4A4A)"/>
</svg>
