<svg preserveAspectRatio="none" width="100%" height="100%" overflow="visible" style="display: block;" viewBox="0 0 10.1616 6.4004" fill="none" xmlns="http://www.w3.org/2000/svg">
<path id="Trazado 9" d="M10.1616 6.3992C9.09877 5.4656 8.24339 4.736 7.16299 3.884C6.78513 3.54791 6.31908 3.32747 5.82008 3.2488C4.89209 3.1644 4.06105 3.7868 3.26352 4.1896C2.35389 4.646 1.5384 5.0964 0.610414 5.5632C0.41466 5.67724 0.210611 5.77632 0 5.8596C1.05496 5.26144 2.05284 4.56732 2.98106 3.786C4.09816 2.9152 5.26353 1.9484 5.76383 0.574399C5.83144 0.38971 5.87241 0.196295 5.88551 0C5.86455 0.325095 5.90696 0.651171 6.01039 0.960001C6.25542 1.62508 6.62058 2.2392 7.08759 2.7716C8.0967 3.99293 9.12071 5.20253 10.1596 6.4004" fill="var(--fill-0, #4A4A4A)"/>
</svg>
