<svg preserveAspectRatio="none" width="100%" height="100%" overflow="visible" style="display: block;" viewBox="0 0 6.58715 5.89092" fill="none" xmlns="http://www.w3.org/2000/svg">
<path id="Trazado 16" d="M6.56694 0.591325C6.49482 0.79657 6.37677 0.982524 6.22184 1.13492C6.0826 1.28892 5.9274 1.42732 5.78537 1.57852C5.39838 1.98852 4.99223 2.37852 4.57332 2.75492C3.7355 3.50652 2.84621 4.20173 1.95452 4.89213C1.49233 5.29874 0.958202 5.61486 0.379813 5.82412C0.25618 5.86091 0.128739 5.88332 0 5.89092C0.0136845 5.69709 0.0545136 5.50615 0.121285 5.32372C0.621586 3.94852 1.76701 2.99732 2.88491 2.12652C3.63322 1.50602 4.42039 0.934186 5.24159 0.414525L5.24757 0.410124C5.30702 0.379724 5.36926 0.340525 5.43309 0.299725C5.43588 0.299725 5.43907 0.295325 5.44187 0.293725C5.57598 0.197333 5.71987 0.115411 5.87115 0.049325C5.87187 0.0484359 5.87279 0.0477217 5.87382 0.0472368C5.87486 0.0467519 5.87599 0.0465088 5.87714 0.046525C5.97323 0.00620043 6.07816 -0.00827739 6.18155 0.00452442C6.24806 0.0117298 6.31216 0.0335704 6.36928 0.0684854C6.4264 0.1034 6.47513 0.150529 6.51198 0.206507C6.54883 0.262484 6.5729 0.325929 6.58247 0.392311C6.59204 0.458694 6.58688 0.526375 6.56734 0.590524" fill="var(--fill-0, #4A4A4A)"/>
</svg>
