<svg preserveAspectRatio="none" width="100%" height="100%" overflow="visible" style="display: block;" viewBox="0 0 9.56755 6.4144" fill="none" xmlns="http://www.w3.org/2000/svg">
<path id="Trazado 11" d="M9.55438 0.9464C9.55847 0.943789 9.5629 0.941769 9.56755 0.9404C8.74724 1.45918 7.96099 2.03022 7.21366 2.65C6.09657 3.5208 4.95154 4.4716 4.45004 5.8472C4.38435 6.02996 4.34343 6.22073 4.32836 6.4144C4.3491 6.09193 4.30724 5.76848 4.20508 5.462C3.95203 4.80111 3.58 4.19247 3.10753 3.6664C2.08618 2.432 1.05034 1.20987 0 0C1.01776 0.9176 1.927 1.7576 2.96949 2.5472C3.34937 2.88051 3.81442 3.10103 4.3124 3.184C5.24039 3.2684 6.11053 2.7376 6.90207 2.322C8.62599 1.4148 8.62599 1.4148 9.55398 0.9468" fill="var(--fill-0, #4A4A4A)"/>
</svg>
