<svg preserveAspectRatio="none" width="100%" height="100%" overflow="visible" style="display: block;" viewBox="0 0 73.9982 25.2434" fill="none" xmlns="http://www.w3.org/2000/svg">
<g id="Capa_1-2">
<path id="Vector" d="M3.05569 12.6204C3.05569 9.8421 4.13718 7.23038 6.10149 5.26559C8.0654 3.30121 10.6769 2.21905 13.4546 2.21905C16.2322 2.21905 18.8433 3.3008 20.8076 5.26559C22.7715 7.22997 23.8534 9.8421 23.8534 12.6204C23.8534 15.3988 22.7719 18.0105 20.8076 19.9753C18.8437 21.9397 16.2322 23.0218 13.4546 23.0218C10.6769 23.0218 8.0654 21.9401 6.10149 19.9753C4.13759 18.0109 3.05569 15.3988 3.05569 12.6204ZM21.8676 12.6204C21.8676 7.98053 18.0933 4.20538 13.4546 4.20538C8.81578 4.20538 5.04153 7.98053 5.04153 12.6204C5.04153 17.2603 8.81578 21.0355 13.4546 21.0355C18.0933 21.0355 21.8676 17.2603 21.8676 12.6204Z" fill="var(--fill-0, #4A4A4A)"/>
<path id="Vector_2" d="M24.473 7.70583C25.0458 9.08504 25.342 10.5102 25.3871 11.9195C25.3972 12.2393 25.6097 12.5176 25.914 12.616C26.4239 12.781 26.9443 12.3815 26.9094 11.8467C26.8212 10.4939 26.5133 9.13218 25.9644 7.81067C23.2814 1.34983 15.8698 -1.71134 9.41137 0.972719C9.30614 1.0162 9.20214 1.06131 9.09894 1.10763C15.143 -1.21557 21.9736 1.68833 24.473 7.70583Z" fill="var(--fill-0, #4A4A4A)"/>
<path id="Vector_3" d="M2.44915 17.5647C1.87266 16.1871 1.57283 14.7628 1.52367 13.3535C1.5127 13.0337 1.29982 12.7562 0.995114 12.6586C0.48484 12.4949 -0.0343724 12.896 0.00178554 13.4307C0.0931961 14.7835 0.405211 16.1441 0.957737 17.4643C3.65821 23.9175 11.0779 26.9591 17.5295 24.2576C17.6343 24.2137 17.7383 24.1682 17.8415 24.1219C11.8035 26.4613 4.96518 23.5757 2.44956 17.5647H2.44915Z" fill="var(--fill-0, #4A4A4A)"/>
<path id="Vector_4" d="M31.9398 11.7772V11.752C31.9398 9.86161 33.4016 8.27352 35.4049 8.27352C36.6521 8.27352 37.4334 8.73963 38.0635 9.42029L37.1059 10.4411C36.64 9.94938 36.1484 9.60925 35.3923 9.60925C34.2836 9.60925 33.4646 10.5671 33.4646 11.7264V11.7516C33.4646 12.9362 34.2836 13.8814 35.4553 13.8814C36.1736 13.8814 36.7025 13.5539 37.1815 13.0622L38.1013 13.9696C37.446 14.7006 36.6777 15.2171 35.3797 15.2171C33.4016 15.2171 31.9398 13.6668 31.9398 11.7764V11.7772Z" fill="var(--fill-0, #4A4A4A)"/>
<path id="Vector_5" d="M39.5878 8.41209H41.1126V15.0664H39.5878V8.41209ZM41.0492 5.50087L42.435 6.11855L40.8855 7.56766H39.739L41.0492 5.50087Z" fill="var(--fill-0, #4A4A4A)"/>
<path id="Vector_6" d="M43.1029 8.41209H44.6272V9.912C45.0432 8.9164 45.8115 8.23573 46.9832 8.28612V9.8994H46.895C45.5596 9.8994 44.6272 10.769 44.6272 12.5335V15.0668H43.1029V8.4125V8.41209Z" fill="var(--fill-0, #4A4A4A)"/>
<path id="Vector_7" d="M47.7145 11.7772V11.752C47.7145 9.86161 49.1762 8.27352 51.1795 8.27352C52.4268 8.27352 53.208 8.73963 53.8382 9.42029L52.8806 10.4411C52.4146 9.94938 51.923 9.60925 51.1669 9.60925C50.0582 9.60925 49.2392 10.5671 49.2392 11.7264V11.7516C49.2392 12.9362 50.0582 13.8814 51.2299 13.8814C51.9482 13.8814 52.4772 13.5539 52.9561 13.0622L53.8759 13.9696C53.2206 14.7006 52.4524 15.2171 51.1543 15.2171C49.1762 15.2171 47.7145 13.6668 47.7145 11.7764V11.7772Z" fill="var(--fill-0, #4A4A4A)"/>
<path id="Vector_8" d="M55.1987 12.6468V8.4125H56.7235V12.1933C56.7235 13.2267 57.2402 13.8066 58.147 13.8066C59.0538 13.8066 59.6466 13.2015 59.6466 12.1681V8.4125H61.1839V15.0668H59.6466V14.0334C59.218 14.6637 58.6008 15.2053 57.5677 15.2053C56.0686 15.2053 55.1991 14.1971 55.1991 12.6468H55.1987Z" fill="var(--fill-0, #4A4A4A)"/>
<path id="Vector_9" d="M63.1742 5.86661H64.6989V15.0668H63.1742V5.86661Z" fill="var(--fill-0, #4A4A4A)"/>
<path id="Vector_10" d="M66.324 11.7772V11.752C66.324 9.84901 67.8361 8.27352 69.8772 8.27352C71.9183 8.27352 73.4179 9.82341 73.4179 11.7268V11.752C73.4179 13.6425 71.9057 15.2179 69.852 15.2179C67.7983 15.2179 66.324 13.6676 66.324 11.7772ZM71.8931 11.7772V11.752C71.8931 10.5801 71.0489 9.60966 69.852 9.60966C68.6552 9.60966 67.8487 10.5675 67.8487 11.7268V11.752C67.8487 12.9114 68.693 13.8818 69.8772 13.8818C71.0615 13.8818 71.8931 12.924 71.8931 11.7772Z" fill="var(--fill-0, #4A4A4A)"/>
<path id="Vector_11" d="M73.4479 7.65584C73.7539 7.65584 73.998 7.90332 73.998 8.21378C73.998 8.52425 73.7535 8.77335 73.4479 8.77335C73.1424 8.77335 72.9056 8.5275 72.9056 8.21378C72.9056 7.90007 73.1485 7.65584 73.4479 7.65584ZM73.4479 8.69045C73.7092 8.69045 73.9091 8.4828 73.9091 8.21378C73.9091 7.94477 73.7092 7.73874 73.4479 7.73874C73.1867 7.73874 72.9962 7.94761 72.9962 8.21378C72.9962 8.47996 73.1928 8.69045 73.4479 8.69045ZM73.2668 7.91429H73.4805C73.5865 7.91429 73.6604 7.985 73.6604 8.09269C73.6604 8.18168 73.6035 8.23735 73.5483 8.25117V8.25401C73.5483 8.25401 73.5544 8.26174 73.5682 8.28774L73.6836 8.51368H73.5881L73.4683 8.27068H73.3529V8.51368H73.2668V7.91429ZM73.465 8.20322C73.5296 8.20322 73.571 8.16177 73.571 8.09269C73.571 8.0236 73.5296 7.98662 73.465 7.98662H73.3529V8.20322H73.465Z" fill="var(--fill-0, #4A4A4A)"/>
<path id="Vector_12" d="M31.9934 18.9346V18.9256C31.9934 18.1617 32.5496 17.7094 33.1099 17.7094C33.5438 17.7094 33.8241 17.9447 34.0049 18.2068V16.7963H34.3531V20.0968H34.0049V19.6266C33.8152 19.907 33.5393 20.1468 33.1099 20.1468C32.5492 20.1468 31.9934 19.7038 31.9934 18.935V18.9346ZM34.0187 18.9301V18.9212C34.0187 18.3831 33.6076 18.0215 33.1733 18.0215C32.739 18.0215 32.3506 18.3559 32.3506 18.9212V18.9301C32.3506 19.482 32.7345 19.8343 33.1733 19.8343C33.612 19.8343 34.0187 19.4681 34.0187 18.9301Z" fill="var(--fill-0, #4A4A4A)"/>
<path id="Vector_13" d="M34.9856 18.9346V18.9256C34.9856 18.2519 35.4601 17.7094 36.1065 17.7094C36.798 17.7094 37.1961 18.2608 37.1961 18.9439C37.1961 18.989 37.1961 19.0163 37.1916 19.0569H35.3382C35.3878 19.5632 35.7449 19.8481 36.1609 19.8481C36.4819 19.8481 36.7082 19.7168 36.8979 19.5181L37.1149 19.7124C36.88 19.9745 36.5948 20.1508 36.152 20.1508C35.5101 20.1508 34.986 19.6579 34.986 18.9346H34.9856ZM36.8435 18.7989C36.8073 18.3738 36.5632 18.0032 36.0976 18.0032C35.6909 18.0032 35.3833 18.3421 35.3382 18.7989H36.8435Z" fill="var(--fill-0, #4A4A4A)"/>
<path id="Vector_14" d="M39.017 18.9395V18.9305C39.017 18.2706 39.5322 17.7098 40.2147 17.7098C40.6575 17.7098 40.9334 17.8951 41.1503 18.1259L40.9196 18.3701C40.7343 18.1755 40.5263 18.0174 40.2098 18.0174C39.7353 18.0174 39.3737 18.4197 39.3737 18.9216V18.9305C39.3737 19.4368 39.7442 19.8396 40.2326 19.8396C40.5312 19.8396 40.7615 19.6904 40.9468 19.4913L41.1682 19.6994C40.933 19.9615 40.6531 20.1516 40.2143 20.1516C39.5318 20.1516 39.0166 19.5953 39.0166 18.9399L39.017 18.9395Z" fill="var(--fill-0, #4A4A4A)"/>
<path id="Vector_15" d="M41.7423 17.759H42.0905V18.3693C42.2619 17.9804 42.6011 17.7 43.0444 17.7183V18.0938H43.0172C42.5065 18.0938 42.0905 18.4599 42.0905 19.1654V20.0968H41.7423V17.759Z" fill="var(--fill-0, #4A4A4A)"/>
<path id="Vector_16" d="M43.3288 18.9346V18.9256C43.3288 18.2519 43.8033 17.7094 44.4501 17.7094C45.1415 17.7094 45.5393 18.2608 45.5393 18.9439C45.5393 18.989 45.5393 19.0163 45.5348 19.0569H43.6814C43.731 19.5632 44.0885 19.8481 44.5041 19.8481C44.8251 19.8481 45.0509 19.7168 45.2411 19.5181L45.458 19.7124C45.2228 19.9745 44.938 20.1508 44.4952 20.1508C43.8533 20.1508 43.3288 19.6579 43.3288 18.9346ZM45.1866 18.7989C45.1505 18.3738 44.9063 18.0032 44.4407 18.0032C44.0341 18.0032 43.7265 18.3421 43.681 18.7989H45.1866ZM44.73 16.7504L45.092 16.9178L44.5764 17.4062H44.3054L44.73 16.7508V16.7504Z" fill="var(--fill-0, #4A4A4A)"/>
<path id="Vector_17" d="M46.0138 18.9346V18.9256C46.0138 18.1617 46.5696 17.7094 47.1302 17.7094C47.5641 17.7094 47.8445 17.9447 48.0252 18.2068V16.7963H48.3734V20.0968H48.0252V19.6266C47.8351 19.907 47.5597 20.1468 47.1302 20.1468C46.5696 20.1468 46.0138 19.7038 46.0138 18.935V18.9346ZM48.0391 18.9301V18.9212C48.0391 18.3831 47.6279 18.0215 47.194 18.0215C46.7601 18.0215 46.3713 18.3559 46.3713 18.9212V18.9301C46.3713 19.482 46.7557 19.8343 47.194 19.8343C47.6324 19.8343 48.0391 19.4681 48.0391 18.9301Z" fill="var(--fill-0, #4A4A4A)"/>
<path id="Vector_18" d="M49.1591 16.8637H49.5569V17.2482H49.1591V16.8637ZM49.1819 17.759H49.5301V20.0968H49.1819V17.759Z" fill="var(--fill-0, #4A4A4A)"/>
<path id="Vector_19" d="M50.4608 19.4775V18.0666H50.1354V17.759H50.4608V17.0535H50.809V17.759H51.5505V18.0666H50.809V19.4324C50.809 19.7172 50.9671 19.8213 51.2023 19.8213C51.3197 19.8213 51.4192 19.7989 51.5415 19.74V20.0383C51.4192 20.1017 51.2884 20.1378 51.121 20.1378C50.746 20.1378 50.4612 19.9525 50.4612 19.4779L50.4608 19.4775Z" fill="var(--fill-0, #4A4A4A)"/>
<path id="Vector_20" d="M51.9522 18.9395V18.9305C51.9522 18.2706 52.4674 17.7098 53.1727 17.7098C53.878 17.7098 54.3886 18.2612 54.3886 18.9216V18.9305C54.3886 19.5909 53.8686 20.1512 53.1633 20.1512C52.458 20.1512 51.9518 19.5998 51.9518 18.9395H51.9522ZM54.0319 18.9395V18.9305C54.0319 18.4286 53.6565 18.017 53.1637 18.017C52.6709 18.017 52.3094 18.4286 52.3094 18.9212V18.9301C52.3094 19.432 52.6799 19.8392 53.1727 19.8392C53.6655 19.8392 54.0315 19.4324 54.0315 18.9395H54.0319Z" fill="var(--fill-0, #4A4A4A)"/>
</g>
</svg>
