<svg preserveAspectRatio="none" width="100%" height="100%" overflow="visible" style="display: block;" viewBox="0 0 12.5729 15.4062" fill="none" xmlns="http://www.w3.org/2000/svg">
<g id="Group">
<path id="Vector" opacity="0.4" d="M12.3958 4.74583C11.6521 1.47333 8.79748 0 6.28998 0C6.28998 0 6.28998 0 6.2829 0C3.78248 0 0.920818 1.46625 0.177068 4.73875C-0.651682 8.39375 1.58665 11.4892 3.61248 13.4371C4.36332 14.1596 5.31957 15.4062 6.2829 15.4062C7.24623 15.4062 8.21665 14.1596 8.9604 13.4371C10.9862 11.4892 13.2246 8.40083 12.3958 4.74583Z" fill="var(--fill-0, #003E56)"/>
<path id="Vector_2" d="M6.28998 8.29473C7.52227 8.29473 8.52123 7.29576 8.52123 6.06347C8.52123 4.83116 7.52227 3.8322 6.28998 3.8322C5.0577 3.8322 4.05873 4.83116 4.05873 6.06347C4.05873 7.29576 5.0577 8.29473 6.28998 8.29473Z" fill="var(--fill-0, black)"/>
</g>
</svg>
