<svg preserveAspectRatio="none" width="100%" height="100%" overflow="visible" style="display: block;" viewBox="0 0 5.08759 5.1008" fill="none" xmlns="http://www.w3.org/2000/svg">
<path id="Trazado 17" d="M0 2.5504C0 2.04598 0.149191 1.55289 0.428707 1.13347C0.708222 0.714064 1.10551 0.387173 1.57033 0.194139C2.03514 0.00110505 2.54661 -0.0494014 3.04006 0.0490064C3.53351 0.147414 3.98677 0.390316 4.34253 0.746996C4.69828 1.10368 4.94055 1.55811 5.03871 2.05284C5.13686 2.54757 5.08648 3.06037 4.89395 3.5264C4.70142 3.99242 4.37537 4.39074 3.95705 4.67098C3.53872 4.95122 3.04691 5.1008 2.54379 5.1008C1.86914 5.1008 1.22211 4.8321 0.74506 4.35381C0.268007 3.87551 0 3.22681 0 2.5504Z" fill="var(--fill-0, #4A4A4A)"/>
</svg>
