<svg preserveAspectRatio="none" width="100%" height="100%" overflow="visible" style="display: block;" viewBox="0 0 8.65467 16.6767" fill="none" xmlns="http://www.w3.org/2000/svg">
<path id="Trazado 10" d="M8.65427 9.77181V9.77901C8.49808 9.78096 8.3429 9.80438 8.19307 9.84861C7.61397 10.0634 7.07993 10.3846 6.61836 10.7958C5.72787 11.4846 4.83898 12.179 3.99956 12.9318C3.58065 13.3082 3.1749 13.6974 2.78751 14.1082C2.64547 14.2594 2.49028 14.3974 2.35104 14.5514C2.19629 14.7029 2.07823 14.8879 2.00594 15.0922C1.98626 15.1565 1.98102 15.2244 1.99059 15.291C2.00016 15.3576 2.02431 15.4212 2.06129 15.4773C2.09828 15.5334 2.1472 15.5807 2.20454 15.6156C2.26187 15.6505 2.32621 15.6723 2.39293 15.6794C2.52028 15.6943 2.64933 15.6794 2.76995 15.6358C2.55717 15.7534 2.32617 15.8759 2.07695 16.0034C1.6724 16.2098 1.33448 16.397 0.967832 16.5934C0.844573 16.6621 0.702629 16.6894 0.562781 16.6713C0.422932 16.6532 0.292525 16.5907 0.190651 16.493C0.0951221 16.3963 0.0317332 16.2724 0.00916444 16.1382C-0.0134043 16.004 0.00595053 15.8661 0.0645787 15.7434C0.0998072 15.6797 0.142683 15.6206 0.192247 15.5674C1.12024 14.4762 1.44779 14.071 3.42385 11.617C3.89503 11.0342 4.39094 10.3398 4.43722 9.59301C4.47353 8.97101 4.12842 8.35941 3.87867 7.79301C2.90542 5.52387 1.81723 3.30605 0.61834 1.14821C0.586423 1.08421 0.493465 0.913008 0.458755 0.835808C0.429592 0.764548 0.417697 0.68737 0.424045 0.610608C0.431808 0.441311 0.50623 0.282014 0.630984 0.167658C0.755739 0.0533025 0.920641 -0.00677356 1.08952 0.000607967C1.23607 0.0057857 1.37615 0.062416 1.48529 0.160608C1.48968 0.160608 1.49127 0.165008 1.49526 0.169408C1.70607 0.374633 1.90381 0.59293 2.08732 0.823008C2.84137 1.66141 3.58809 2.50701 4.32751 3.35981C4.10129 3.15981 3.67799 3.42501 3.73305 3.77101C3.86232 4.28308 4.0733 4.77084 4.35783 5.21541C4.81833 6.09184 5.33973 6.93472 5.91817 7.73781C6.47672 8.50661 7.1015 9.30981 8.01074 9.67621C8.21522 9.7572 8.43552 9.79004 8.65467 9.77221" fill="var(--fill-0, #4A4A4A)"/>
</svg>
