<svg preserveAspectRatio="none" width="100%" height="100%" overflow="visible" style="display: block;" viewBox="0 0 8.69262 16.7198" fill="none" xmlns="http://www.w3.org/2000/svg">
<path id="Trazado 12" d="M8.69143 0.6496C8.6918 0.783669 8.64991 0.914428 8.57174 1.0232C8.36867 1.2704 8.36867 1.2704 8.30044 1.3548C6.65751 3.3656 6.49792 3.5548 5.21326 5.0956C4.7345 5.67 4.24617 6.3756 4.20109 7.1208C4.23239 7.75939 4.42455 8.37962 4.75964 8.9236C6.01239 11.4548 5.96331 11.654 8.02077 15.5692C8.05428 15.6316 8.14684 15.8048 8.18035 15.8804C8.20963 15.9522 8.22113 16.03 8.21387 16.1072C8.21028 16.1912 8.19021 16.2737 8.15482 16.3499C8.11943 16.4261 8.06941 16.4946 8.00761 16.5514C7.94581 16.6083 7.87344 16.6523 7.79465 16.6811C7.71586 16.7099 7.63218 16.7229 7.54839 16.7192C7.40234 16.7134 7.26285 16.6568 7.15382 16.5592C7.1502 16.5566 7.14685 16.5537 7.14385 16.5504C6.93373 16.3439 6.73565 16.1254 6.55059 15.896C5.78644 15.044 5.02841 14.1852 4.27649 13.3196C4.33657 13.3614 4.40778 13.3842 4.48091 13.3849C4.55403 13.3857 4.6257 13.3644 4.68663 13.3238C4.74755 13.2833 4.79491 13.2253 4.82259 13.1574C4.85026 13.0896 4.85696 13.0149 4.84182 12.9432C4.71256 12.4309 4.50158 11.9429 4.21705 11.498C3.75657 10.621 3.23516 9.77764 2.6567 8.974C2.09815 8.2048 1.47337 7.3848 0.564135 7.0184C0.384726 6.94743 0.192784 6.91381 0 6.9196V6.9124C0.129249 6.90469 0.257207 6.88228 0.38141 6.8456C0.959798 6.63634 1.49393 6.32021 1.95612 5.9136C2.84661 5.2228 3.7351 4.528 4.57332 3.7764C4.99383 3.4 5.39997 3.01 5.78697 2.6C5.929 2.4488 6.0842 2.3108 6.22344 2.1564C6.37837 2.004 6.49642 1.81805 6.56854 1.6128C6.58784 1.54914 6.593 1.48202 6.58365 1.41614C6.57431 1.35027 6.55068 1.28725 6.51444 1.23151C6.4782 1.17577 6.43023 1.12867 6.37389 1.09351C6.31755 1.05835 6.25421 1.03599 6.18833 1.028C6.08166 1.01451 5.97335 1.03056 5.87514 1.0744C6.08699 0.9568 6.314 0.8344 6.56694 0.7064C6.87455 0.5492 7.14265 0.404001 7.41394 0.257201C7.5835 0.165601 7.5835 0.1656 7.78219 0.0596002C7.86462 0.0204519 7.95469 9.76224e-05 8.0459 1.2354e-07C8.13085 -5.2463e-05 8.21497 0.0166836 8.29345 0.0492502C8.37194 0.0818167 8.44325 0.129575 8.50332 0.189795C8.56338 0.250015 8.61102 0.321515 8.6435 0.400206C8.67598 0.478897 8.69267 0.563236 8.69262 0.6484" fill="var(--fill-0, #4A4A4A)"/>
</svg>
