<svg preserveAspectRatio="none" width="100%" height="100%" overflow="visible" style="display: block;" viewBox="0 0 56.7813 12.2549" fill="none" xmlns="http://www.w3.org/2000/svg">
<g id="FINSOCIAL">
<path id="F" d="M1.4986e-06 12.08H1.94415V7.0976H6.67267V5.478H1.94455V2.462H7.16539V0.8432H1.4986e-06V12.08Z" fill="var(--fill-0, #4A4A4A)"/>
<g id="I">
<path id="I_2" d="M10.1277 3.5744H8.28967V12.08H10.1277V3.5744Z" fill="var(--fill-0, #4A4A4A)"/>
<path id="." d="M10.1277 0.6776H8.28967V2.7276H10.1277V0.6776Z" fill="var(--fill-0, #4A4A4A)"/>
</g>
<path id="N" d="M15.9414 3.41C14.9587 3.41 14.2454 3.5848 13.8093 3.9356V3.5756H11.9705V12.0796H13.8105V6.0396C13.7896 5.88586 13.8057 5.72932 13.8577 5.58315C13.9096 5.43698 13.9958 5.30544 14.109 5.1996C14.2645 5.092 14.64 4.9628 15.5544 4.9628C15.8145 4.95598 16.0742 4.98834 16.3248 5.0588C16.4629 5.09116 16.5864 5.16853 16.6759 5.2788C16.7459 5.37558 16.7964 5.48508 16.8247 5.6012C16.8542 5.74591 16.8668 5.89357 16.8622 6.0412V12.0812H18.7014V5.9576C18.7513 5.26999 18.5341 4.58966 18.0954 4.0588C17.6853 3.6188 16.9803 3.4104 15.941 3.4104" fill="var(--fill-0, #4A4A4A)"/>
<path id="S" d="M23.872 6.8848H23.0342C21.9478 6.8848 21.9478 6.4756 21.9478 6.32V5.64C21.9333 5.53028 21.9505 5.41869 21.9973 5.31845C22.0441 5.21822 22.1186 5.13352 22.2119 5.0744C22.633 4.90179 23.0896 4.83439 23.5425 4.878C24.2857 4.88967 25.0266 4.9661 25.7567 5.1064L26.0487 5.1576V3.5576L25.8193 3.5428C24.5722 3.452 23.8477 3.4088 23.6023 3.4088C21.2947 3.4088 20.1241 4.1264 20.1241 5.5428V6.29C20.1105 6.59159 20.1632 6.89249 20.2783 7.17145C20.3934 7.4504 20.5682 7.70061 20.7904 7.9044C21.325 8.32481 21.9955 8.53262 22.6735 8.488H23.4982C23.8012 8.46025 24.1057 8.52008 24.3759 8.6604C24.427 8.6952 24.583 8.802 24.583 9.1852V9.9964C24.583 10.3784 24.4234 10.4968 24.2849 10.5564C23.8816 10.6895 23.4574 10.7472 23.0334 10.7268C22.2031 10.6836 21.377 10.5799 20.5618 10.4164L20.2737 10.3656V12.01L20.4832 12.0436C21.3171 12.1723 22.1593 12.2392 23.0031 12.2436C23.8586 12.2917 24.7113 12.1078 25.4714 11.7112C26.0902 11.336 26.405 10.6624 26.405 9.714V9.02C26.405 8.0452 25.9662 6.8848 23.8708 6.8848" fill="var(--fill-0, #4A4A4A)"/>
<path id="O" d="M31.0837 10.7752C30.7062 10.7752 30.4162 10.7648 30.2279 10.744C30.053 10.7225 29.883 10.6718 29.7248 10.594C29.662 10.5628 29.6063 10.519 29.561 10.4655C29.5158 10.4119 29.4819 10.3496 29.4615 10.2824C29.3919 10.0329 29.3612 9.77411 29.3705 9.5152V6.2716C29.3705 5.422 29.5532 5.176 29.6629 5.1024C29.8173 4.9996 30.1936 4.8788 31.0837 4.8788C31.9737 4.8788 32.3504 4.9988 32.5068 5.1036C32.6157 5.176 32.7976 5.4236 32.7976 6.2716V9.5148C32.8066 9.77372 32.7758 10.0325 32.7062 10.282C32.6867 10.3499 32.6529 10.4128 32.6071 10.4665C32.5614 10.5202 32.5047 10.5636 32.4409 10.5936C32.2849 10.6737 32.1157 10.7245 31.9414 10.7436C31.7491 10.7647 31.4633 10.7751 31.0841 10.7748M34.0188 4.1748C33.7951 3.92211 33.5046 3.73797 33.181 3.6436C32.874 3.54002 32.556 3.47289 32.2335 3.4436C31.9518 3.4196 31.5648 3.41 31.0837 3.41C30.6025 3.41 30.2179 3.4196 29.9335 3.4436C29.6115 3.47263 29.2941 3.53976 28.9879 3.6436C28.6638 3.73695 28.3731 3.92126 28.1501 4.1748C27.9371 4.4509 27.7795 4.76577 27.6861 5.102C27.5541 5.56177 27.4922 6.03889 27.5026 6.5172V9.2988C27.4854 9.83405 27.5639 10.3681 27.7344 10.8756C27.883 11.2879 28.1825 11.6279 28.5722 11.8268C28.9106 12.0035 29.2764 12.1213 29.6542 12.1752C30.1295 12.2266 30.6076 12.2489 31.0857 12.242C31.5564 12.242 31.943 12.2316 32.2347 12.2096C32.5586 12.1812 32.8783 12.1164 33.1878 12.0164C33.5042 11.926 33.7913 11.7539 34.0204 11.5172C34.2379 11.2591 34.398 10.9574 34.49 10.6324C34.6183 10.2 34.6785 9.7502 34.6683 9.2992V6.5192C34.6782 6.04086 34.6161 5.56375 34.484 5.104C34.3904 4.76792 34.233 4.4531 34.0204 4.1768" fill="var(--fill-0, #4A4A4A)"/>
<path id="C" d="M39.5684 10.7084C38.6588 10.7084 38.2973 10.5796 38.1533 10.4684C38.04 10.336 37.9561 10.181 37.907 10.0137C37.858 9.84629 37.845 9.67039 37.8688 9.4976V6.2176C37.8688 5.4772 38.0284 5.2292 38.1214 5.1448C38.2215 5.0568 38.5231 4.9084 39.416 4.9084C40.1494 4.9164 40.8783 5.02473 41.5824 5.2304L41.8948 5.3188V3.7068L41.7061 3.6616C41.0108 3.49303 40.2981 3.40724 39.5828 3.406C39.193 3.406 38.891 3.4144 38.6584 3.4316C38.4258 3.4488 38.1557 3.4832 37.8585 3.5332C37.5739 3.57345 37.3015 3.67571 37.0605 3.8328C36.8577 3.98325 36.6759 4.16029 36.52 4.3592C36.323 4.61745 36.1867 4.91686 36.121 5.2352C36.0367 5.62949 35.9965 6.03198 36.0013 6.4352V9.3816C35.9903 9.83359 36.0562 10.2842 36.196 10.714C36.2952 11.0289 36.4568 11.3204 36.6712 11.5712C36.9011 11.7999 37.1875 11.9633 37.501 12.0448C37.7906 12.1359 38.0894 12.1948 38.3919 12.2204C38.6424 12.2376 38.9903 12.2444 39.4332 12.2444C40.2311 12.2555 41.0277 12.1761 41.8078 12.0076L41.9973 11.9628V10.3172L41.6849 10.4036C40.9963 10.6013 40.2839 10.7038 39.5676 10.7084" fill="var(--fill-0, #4A4A4A)"/>
<g id="I_3">
<path id="._2" d="M45.0514 0.6776H43.2126V2.7276H45.0514V0.6776Z" fill="var(--fill-0, #4A4A4A)"/>
<path id="I_4" d="M45.0514 3.5744H43.2126V12.08H45.0514V3.5744Z" fill="var(--fill-0, #4A4A4A)"/>
</g>
<path id="A" d="M50.2283 10.7592C50.056 10.77 49.8465 10.7752 49.5932 10.7752H49.3223C48.8862 10.7752 48.595 10.6952 48.4809 10.5388C48.3134 10.2195 48.244 9.85761 48.2814 9.4988C48.2814 8.7312 48.4011 8.5112 48.4526 8.4532C48.4897 8.4112 48.6696 8.2724 49.4272 8.2724H51.2601V10.21C51.2636 10.261 51.2566 10.3122 51.2395 10.3604C51.2224 10.4085 51.1956 10.4527 51.1607 10.49C51.0534 10.5855 50.9208 10.6478 50.7789 10.6696C50.5979 10.7141 50.4135 10.743 50.2275 10.756M49.9515 3.41C49.1499 3.41 48.2411 3.4604 47.2489 3.5592L47.0275 3.5828V5.1828L47.3067 5.1408C48.1185 5.0179 48.9379 4.95307 49.7588 4.9468C50.1849 4.90455 50.6148 4.97115 51.0083 5.1404C51.1759 5.2452 51.2597 5.4768 51.2597 5.8244V6.8528H49.3375C48.2347 6.8528 47.4986 7.0388 47.0893 7.424C46.68 7.8092 46.4721 8.4764 46.4721 9.45C46.4721 10.5616 46.6899 11.29 47.1336 11.6808C47.5669 12.0608 48.2978 12.2448 49.3678 12.2448C50.0386 12.2952 50.7102 12.1567 51.3067 11.8448V12.0788H53.1021V6.17C53.1021 5.062 52.8982 4.3384 52.4817 3.9596C52.0728 3.59 51.2425 3.4088 49.9523 3.4088" fill="var(--fill-0, #4A4A4A)"/>
<path id="L" d="M56.7813 9.53674e-08H54.9429V12.08H56.7813V9.53674e-08Z" fill="var(--fill-0, #4A4A4A)"/>
</g>
</svg>
