<svg preserveAspectRatio="none" width="100%" height="100%" overflow="visible" style="display: block;" viewBox="0 0 6.66984 5.91003" fill="none" xmlns="http://www.w3.org/2000/svg">
<path id="Trazado 13" d="M6.66984 0C6.65633 0.196238 6.61537 0.3896 6.54816 0.574402C6.04626 1.9484 4.88208 2.9152 3.76419 3.786C2.83646 4.56776 1.83897 5.26228 0.784326 5.8608C0.663167 5.90443 0.53358 5.91935 0.40571 5.9044C0.339122 5.8971 0.274962 5.87515 0.217808 5.84012C0.160653 5.8051 0.111913 5.75786 0.075065 5.70177C0.0382165 5.64569 0.0141677 5.58214 0.00463405 5.51566C-0.00489956 5.44919 0.000317162 5.38142 0.0199119 5.3172C0.0925747 5.11257 0.210567 4.92712 0.365015 4.7748C0.504254 4.6208 0.659451 4.4824 0.801482 4.3312C1.18848 3.9212 1.59622 3.5312 2.01513 3.1548C2.85295 2.4016 3.74224 1.7068 4.63233 1.0176C5.09384 0.606129 5.62788 0.284627 6.20704 0.0696014C6.35731 0.0254839 6.51327 0.00206775 6.66984 0Z" fill="var(--fill-0, #4A4A4A)"/>
</svg>
