<svg width="24" height="24" viewBox="0 0 24 24" fill="none" xmlns="http://www.w3.org/2000/svg">
<path d="M12 7.11103L11.5978 7.50008C11.6004 7.50268 11.6029 7.50526 11.6054 7.50781L12 7.11103ZM13.0938 9.00334C13.3118 9.22239 13.6652 9.22232 13.8831 9.00319C14.1011 8.78406 14.101 8.42883 13.8829 8.20978L13.0938 9.00334ZM10.0845 16.7018C8.95657 15.808 7.72321 14.9352 6.74477 13.8278C5.78547 12.7419 5.11628 11.475 5.11628 9.83123H4C4 11.8251 4.82642 13.3462 5.91012 14.5728C6.97468 15.7777 8.33174 16.7416 9.39343 17.583L10.0845 16.7018ZM5.11628 9.83123C5.11628 8.22231 6.02074 6.87307 7.25534 6.30582C8.45475 5.75473 10.0664 5.90067 11.5978 7.50008L12.4022 6.72198C10.5849 4.82421 8.4756 4.51143 6.79126 5.28532C5.14211 6.04305 4 7.80251 4 9.83123H5.11628ZM9.39343 17.583C9.77462 17.885 10.1838 18.2071 10.5985 18.4507C11.0131 18.6942 11.4862 18.8921 12 18.8921V17.77C11.7696 17.77 11.4985 17.6798 11.1617 17.4819C10.8252 17.2842 10.476 17.012 10.0845 16.7018L9.39343 17.583ZM14.6066 17.583C15.6682 16.7416 17.0253 15.7777 18.0899 14.5728C19.1736 13.3462 20 11.8251 20 9.83123H18.8837C18.8837 11.475 18.2145 12.7419 17.2552 13.8278C16.2768 14.9352 15.0434 15.808 13.9155 16.7018L14.6066 17.583ZM20 9.83123C20 7.80251 18.8579 6.04305 17.2087 5.28532C15.5244 4.51143 13.4151 4.82421 11.5978 6.72198L12.4022 7.50008C13.9336 5.90067 15.5452 5.75473 16.7446 6.30582C17.9792 6.87307 18.8837 8.22231 18.8837 9.83123H20ZM13.9155 16.7018C13.524 17.012 13.1748 17.2842 12.8383 17.4819C12.5015 17.6798 12.2304 17.77 12 17.77V18.8921C12.5138 18.8921 12.9869 18.6942 13.4015 18.4507C13.8162 18.2071 14.2253 17.885 14.6066 17.583L13.9155 16.7018ZM11.6054 7.50781L13.0938 9.00334L13.8829 8.20978L12.3946 6.71426L11.6054 7.50781Z" fill="#9CA3AF"/>
</svg>
