<svg width="77" height="20" viewBox="0 0 77 20" fill="none" xmlns="http://www.w3.org/2000/svg">
<g clip-path="url(#clip0_2219_502)">
<path d="M20.2188 16.0212H22.1629V11.0388H26.8914V9.41919H22.1633V6.40319H27.3841V4.78439H20.2188V16.0212Z" fill="#4A4A4A"/>
<path d="M30.3468 7.51559H28.5088V16.0212H30.3468V7.51559Z" fill="#4A4A4A"/>
<path d="M30.3468 4.6188H28.5088V6.6688H30.3468V4.6188Z" fill="#4A4A4A"/>
<path d="M36.1603 7.3512C35.1777 7.3512 34.4643 7.526 34.0283 7.8768V7.5168H32.1895V16.0208H34.0295V9.9808C34.0085 9.82706 34.0247 9.67052 34.0766 9.52435C34.1285 9.37817 34.2147 9.24664 34.3279 9.1408C34.4835 9.0332 34.8589 8.904 35.7733 8.904C36.0335 8.89718 36.2932 8.92954 36.5437 9C36.6818 9.03236 36.8053 9.10973 36.8948 9.22C36.9648 9.31678 37.0153 9.42628 37.0436 9.5424C37.0732 9.6871 37.0857 9.83477 37.0811 9.9824V16.0224H38.9204V9.8988C38.9702 9.21118 38.7531 8.53086 38.3143 8C37.9042 7.56 37.1992 7.3516 36.1599 7.3516" fill="#4A4A4A"/>
<path d="M44.0908 10.826H43.253C42.1666 10.826 42.1666 10.4168 42.1666 10.2612V9.58121C42.1521 9.47148 42.1693 9.3599 42.2161 9.25966C42.2629 9.15942 42.3374 9.07473 42.4307 9.01561C42.8518 8.843 43.3084 8.7756 43.7612 8.81921C44.5045 8.83088 45.2454 8.9073 45.9755 9.04761L46.2675 9.09881V7.49881L46.0381 7.48401C44.791 7.39321 44.0664 7.35001 43.8211 7.35001C41.5135 7.35001 40.3429 8.06761 40.3429 9.48401V10.2312C40.3293 10.5328 40.382 10.8337 40.4971 11.1127C40.6122 11.3916 40.787 11.6418 41.0092 11.8456C41.5438 12.266 42.2143 12.4738 42.8923 12.4292H43.717C44.0199 12.4015 44.3245 12.4613 44.5947 12.6016C44.6457 12.6364 44.8017 12.7432 44.8017 13.1264V13.9376C44.8017 14.3196 44.6421 14.438 44.5037 14.4976C44.1004 14.6307 43.6762 14.6884 43.2522 14.668C42.4219 14.6248 41.5958 14.5211 40.7806 14.3576L40.4925 14.3068V15.9512L40.702 15.9848C41.5359 16.1135 42.3781 16.1804 43.2218 16.1848C44.0774 16.2329 44.9301 16.049 45.6902 15.6524C46.309 15.2772 46.6238 14.6036 46.6238 13.6552V12.9612C46.6238 11.9864 46.1849 10.826 44.0896 10.826" fill="#4A4A4A"/>
<path d="M51.3022 14.7164C50.9247 14.7164 50.6347 14.706 50.4464 14.6852C50.2715 14.6637 50.1015 14.613 49.9433 14.5352C49.8805 14.504 49.8248 14.4602 49.7795 14.4067C49.7343 14.3531 49.7004 14.2908 49.68 14.2236C49.6104 13.9741 49.5797 13.7153 49.589 13.4564V10.2128C49.589 9.3632 49.7717 9.1172 49.8815 9.0436C50.0359 8.9408 50.4121 8.82 51.3022 8.82C52.1923 8.82 52.5689 8.94 52.7253 9.0448C52.8342 9.1172 53.0161 9.3648 53.0161 10.2128V13.456C53.0251 13.7149 52.9943 13.9737 52.9247 14.2232C52.9052 14.2911 52.8714 14.354 52.8256 14.4077C52.7799 14.4614 52.7232 14.5048 52.6594 14.5348C52.5034 14.6149 52.3342 14.6657 52.1599 14.6848C51.9676 14.7059 51.6818 14.7163 51.3026 14.716M54.2373 8.116C54.0136 7.86331 53.7231 7.67916 53.3995 7.5848C53.0926 7.48121 52.7745 7.41409 52.452 7.3848C52.1703 7.3608 51.7833 7.3512 51.3022 7.3512C50.821 7.3512 50.4364 7.3608 50.152 7.3848C49.83 7.41382 49.5126 7.48096 49.2064 7.5848C48.8823 7.67815 48.5916 7.86246 48.3686 8.116C48.1556 8.3921 47.998 8.70697 47.9046 9.0432C47.7726 9.50296 47.7108 9.98009 47.7211 10.4584V13.24C47.7039 13.7753 47.7824 14.3093 47.9529 14.8168C48.1015 15.229 48.401 15.5691 48.7907 15.768C49.1291 15.9447 49.4949 16.0625 49.8727 16.1164C50.348 16.1678 50.8261 16.1901 51.3042 16.1832C51.7749 16.1832 52.1615 16.1728 52.4532 16.1508C52.7771 16.1224 53.0968 16.0576 53.4063 15.9576C53.7227 15.8672 54.0098 15.6951 54.2389 15.4584C54.4564 15.2003 54.6165 14.8986 54.7085 14.5736C54.8368 14.1412 54.897 13.6914 54.8868 13.2404V10.4604C54.8967 9.98205 54.8346 9.50495 54.7025 9.0452C54.6089 8.70912 54.4515 8.3943 54.2389 8.118" fill="#4A4A4A"/>
<path d="M59.7871 14.6496C58.8774 14.6496 58.516 14.5208 58.3719 14.4096C58.2586 14.2772 58.1747 14.1222 58.1256 13.9549C58.0766 13.7875 58.0636 13.6116 58.0875 13.4388V10.1588C58.0875 9.4184 58.2471 9.1704 58.34 9.086C58.4402 8.998 58.7418 8.8496 59.6347 8.8496C60.368 8.8576 61.0969 8.96593 61.801 9.1716L62.1134 9.26V7.648L61.9247 7.6028C61.2294 7.43423 60.5168 7.34843 59.8014 7.3472C59.4116 7.3472 59.1096 7.3556 58.877 7.3728C58.6444 7.39 58.3743 7.4244 58.0771 7.4744C57.7925 7.51465 57.5201 7.61691 57.2792 7.774C57.0763 7.92444 56.8945 8.10149 56.7386 8.3004C56.5417 8.55865 56.4053 8.85806 56.3396 9.1764C56.2553 9.57068 56.2151 9.97318 56.2199 10.3764V13.3228C56.209 13.7748 56.2748 14.2254 56.4146 14.6552C56.5138 14.9701 56.6755 15.2616 56.8898 15.5124C57.1197 15.7411 57.4061 15.9045 57.7196 15.986C58.0093 16.0771 58.308 16.136 58.6105 16.1616C58.8611 16.1788 59.209 16.1856 59.6518 16.1856C60.4497 16.1967 61.2463 16.1173 62.0264 15.9488L62.216 15.904V14.2584L61.9036 14.3448C61.2149 14.5425 60.5026 14.645 59.7863 14.6496" fill="#4A4A4A"/>
<path d="M65.2705 4.6188H63.4316V6.6688H65.2705V4.6188Z" fill="#4A4A4A"/>
<path d="M65.2705 7.51559H63.4316V16.0212H65.2705V7.51559Z" fill="#4A4A4A"/>
<path d="M70.4467 14.7004C70.2743 14.7112 70.0649 14.7164 69.8115 14.7164H69.5406C69.1046 14.7164 68.8133 14.6364 68.6992 14.48C68.5318 14.1607 68.4623 13.7988 68.4997 13.44C68.4997 12.6724 68.6194 12.4524 68.6709 12.3944C68.708 12.3524 68.8879 12.2136 69.6456 12.2136H71.4784V14.1512C71.4819 14.2022 71.4749 14.2534 71.4578 14.3016C71.4407 14.3497 71.4139 14.3939 71.3791 14.4312C71.2717 14.5267 71.1391 14.589 70.9972 14.6108C70.8163 14.6553 70.6318 14.6842 70.4459 14.6972M70.1698 7.35121C69.3683 7.35121 68.4594 7.40161 67.4672 7.50041L67.2458 7.52401V9.12401L67.5251 9.08201C68.3368 8.9591 69.1562 8.89427 69.9771 8.88801C70.4032 8.84576 70.8331 8.91236 71.2266 9.08161C71.3942 9.18641 71.478 9.41801 71.478 9.76561V10.794H69.5558C68.4531 10.794 67.717 10.98 67.3076 11.3652C66.8983 11.7504 66.6904 12.4176 66.6904 13.3912C66.6904 14.5028 66.9083 15.2312 67.3519 15.622C67.7852 16.002 68.5161 16.186 69.5861 16.186C70.257 16.2364 70.9286 16.0979 71.5251 15.786V16.02H73.3204V10.1112C73.3204 9.00321 73.1165 8.27961 72.7 7.90081C72.2911 7.53121 71.4608 7.35001 70.1706 7.35001" fill="#4A4A4A"/>
<path d="M77.0005 3.94119H75.1621V16.0212H77.0005V3.94119Z" fill="#4A4A4A"/>
<g style="mix-blend-mode:multiply">
<mask id="mask0_2219_502" style="mask-type:luminance" maskUnits="userSpaceOnUse" x="14" y="4" width="1" height="1">
<path d="M14.5201 4.3652H14.1172V4.5936H14.5201V4.3652Z" fill="white"/>
</mask>
<g mask="url(#mask0_2219_502)">
<path d="M14.5201 4.3652C14.3781 4.4424 14.2445 4.5192 14.1172 4.5936C14.2433 4.50369 14.3783 4.42714 14.5201 4.3652Z" fill="#4A4A4A"/>
</g>
</g>
<g style="mix-blend-mode:multiply">
<mask id="mask1_2219_502" style="mask-type:luminance" maskUnits="userSpaceOnUse" x="13" y="4" width="2" height="1">
<path d="M14.1115 4.59799H13.8984V4.72599H14.1115V4.59799Z" fill="white"/>
</mask>
<g mask="url(#mask1_2219_502)">
<path d="M14.1115 4.59799C14.0377 4.64439 13.9667 4.68959 13.8984 4.72599C13.9667 4.68399 14.0377 4.64159 14.1115 4.59799Z" fill="#4A4A4A"/>
</g>
</g>
<path d="M12.9311 16.6028C11.8683 15.6692 11.0129 14.9396 9.93253 14.0876C9.55466 13.7515 9.08861 13.5311 8.58961 13.4524C7.66162 13.368 6.83058 13.9904 6.03305 14.3932C5.12342 14.8496 4.30793 15.3 3.37995 15.7668C3.18419 15.8808 2.98014 15.9799 2.76953 16.0632C3.82449 15.4651 4.82238 14.7709 5.75059 13.9896C6.86769 13.1188 8.03306 12.152 8.53336 10.778C8.60097 10.5933 8.64194 10.3999 8.65504 10.2036C8.63408 10.5287 8.67649 10.8548 8.77992 11.1636C9.02495 11.8287 9.39011 12.4428 9.85712 12.9752C10.8662 14.1965 11.8902 15.4061 12.9291 16.604" fill="#4A4A4A"/>
<path d="M8.65524 10.1976V10.2048C8.49906 10.2067 8.34388 10.2302 8.19404 10.2744C7.61495 10.4892 7.08091 10.8104 6.61933 11.2216C5.72885 11.9104 4.83995 12.6048 4.00053 13.3576C3.58162 13.734 3.17588 14.1232 2.78848 14.534C2.64645 14.6852 2.49125 14.8232 2.35202 14.9772C2.19727 15.1286 2.07921 15.3136 2.00691 15.518C1.98724 15.5823 1.982 15.6502 1.99157 15.7168C2.00114 15.7833 2.02528 15.847 2.06227 15.9031C2.09926 15.9592 2.14818 16.0065 2.20551 16.0414C2.26285 16.0763 2.32718 16.0981 2.39391 16.1052C2.52125 16.1201 2.65031 16.1052 2.77093 16.0616C2.55815 16.1792 2.32715 16.3017 2.07793 16.4292C1.67338 16.6356 1.33546 16.8228 0.968809 17.0192C0.84555 17.0878 0.703606 17.1151 0.563757 17.0971C0.423909 17.079 0.293502 17.0165 0.191628 16.9188C0.0960987 16.8221 0.0327098 16.6982 0.010141 16.564C-0.0124277 16.4298 0.0069271 16.2919 0.0655552 16.1692C0.100784 16.1055 0.143659 16.0464 0.193224 15.9932C1.12121 14.902 1.44876 14.4968 3.42483 12.0428C3.89601 11.46 4.39192 10.7656 4.4382 10.0188C4.4745 9.39679 4.1294 8.78519 3.87965 8.21879C2.9064 5.94966 1.81821 3.73183 0.619317 1.57399C0.5874 1.50999 0.494441 1.33879 0.459731 1.26159C0.430568 1.19033 0.418673 1.11315 0.425022 1.03639C0.432785 0.867093 0.507206 0.707795 0.631961 0.593439C0.756716 0.479084 0.921617 0.419008 1.09049 0.426389C1.23704 0.431567 1.37712 0.488197 1.48626 0.586389C1.49065 0.586389 1.49225 0.590789 1.49624 0.595189C1.70705 0.800415 1.90479 1.01871 2.0883 1.24879C2.84234 2.08719 3.58907 2.93279 4.32848 3.78559C4.10227 3.58559 3.67897 3.85079 3.73403 4.19679C3.86329 4.70887 4.07427 5.19662 4.3588 5.64119C4.81931 6.51762 5.34071 7.3605 5.91915 8.16359C6.4777 8.93239 7.10248 9.73559 8.01171 10.102C8.2162 10.183 8.4365 10.2158 8.65564 10.198" fill="#4A4A4A"/>
<path d="M13.8845 4.73241C13.8885 4.7298 13.893 4.72778 13.8976 4.72641C13.0773 5.24519 12.2911 5.81623 11.5437 6.43601C10.4266 7.30681 9.28162 8.25761 8.78012 9.63321C8.71443 9.81597 8.67351 10.0067 8.65844 10.2004C8.67918 9.87794 8.63731 9.55449 8.53516 9.24801C8.28211 8.58712 7.91008 7.97848 7.43761 7.45241C6.41626 6.21801 5.38042 4.99588 4.33008 3.78601C5.34783 4.70361 6.25707 5.54361 7.29957 6.33321C7.67945 6.66652 8.1445 6.88704 8.64248 6.97001C9.57047 7.05441 10.4406 6.52361 11.2322 6.10801C12.9561 5.20081 12.9561 5.20081 13.8841 4.73281" fill="#4A4A4A"/>
<path d="M17.3438 3.92801C17.3441 4.06208 17.3023 4.19284 17.2241 4.30161C17.021 4.54881 17.021 4.54881 16.9528 4.63321C15.3099 6.64401 15.1503 6.83321 13.8656 8.37401C13.3868 8.94841 12.8985 9.65401 12.8534 10.3992C12.8847 11.0378 13.0769 11.658 13.412 12.202C14.6647 14.7332 14.6157 14.9324 16.6731 18.8476C16.7066 18.91 16.7992 19.0832 16.8327 19.1588C16.862 19.2306 16.8735 19.3084 16.8662 19.3856C16.8626 19.4696 16.8426 19.5521 16.8072 19.6283C16.7718 19.7045 16.7217 19.773 16.6599 19.8299C16.5981 19.8867 16.5258 19.9308 16.447 19.9595C16.3682 19.9883 16.2845 20.0013 16.2007 19.9976C16.0547 19.9918 15.9152 19.9352 15.8062 19.8376C15.8025 19.835 15.7992 19.8321 15.7962 19.8288C15.5861 19.6223 15.388 19.4038 15.2029 19.1744C14.4388 18.3224 13.6807 17.4636 12.9288 16.598C12.9889 16.6398 13.0601 16.6626 13.1333 16.6633C13.2064 16.6641 13.278 16.6428 13.339 16.6023C13.3999 16.5617 13.4473 16.5037 13.4749 16.4359C13.5026 16.368 13.5093 16.2933 13.4942 16.2216C13.3649 15.7093 13.1539 15.2213 12.8694 14.7764C12.4089 13.8995 11.8875 13.056 11.309 12.2524C10.7505 11.4832 10.1257 10.6632 9.21648 10.2968C9.03707 10.2258 8.84513 10.1922 8.65234 10.198V10.1908C8.78159 10.1831 8.90955 10.1607 9.03375 10.124C9.61214 9.91475 10.1463 9.59862 10.6085 9.19201C11.499 8.50121 12.3874 7.80641 13.2257 7.05481C13.6462 6.67841 14.0523 6.28841 14.4393 5.87841C14.5813 5.72721 14.7365 5.58921 14.8758 5.43481C15.0307 5.28241 15.1488 5.09646 15.2209 4.89121C15.2402 4.82755 15.2453 4.76043 15.236 4.69456C15.2267 4.62868 15.203 4.56566 15.1668 4.50992C15.1305 4.45418 15.0826 4.40708 15.0262 4.37192C14.9699 4.33676 14.9066 4.3144 14.8407 4.30641C14.734 4.29293 14.6257 4.30897 14.5275 4.35281C14.7393 4.23521 14.9663 4.11281 15.2193 3.98481C15.5269 3.82761 15.795 3.68241 16.0663 3.53561C16.2358 3.44401 16.2358 3.44401 16.4345 3.33801C16.517 3.29886 16.607 3.27851 16.6982 3.27841C16.7832 3.27836 16.8673 3.2951 16.9458 3.32766C17.0243 3.36023 17.0956 3.40799 17.1557 3.46821C17.2157 3.52843 17.2634 3.59993 17.2958 3.67862C17.3283 3.75731 17.345 3.84165 17.345 3.92681" fill="#4A4A4A"/>
<path d="M8.65519 10.202C8.64168 10.3982 8.60072 10.5916 8.53351 10.7764C8.03161 12.1504 6.86743 13.1172 5.74954 13.988C4.82181 14.7698 3.82432 15.4643 2.76968 16.0628C2.64852 16.1064 2.51893 16.1213 2.39106 16.1064C2.32447 16.0991 2.26031 16.0771 2.20316 16.0421C2.146 16.0071 2.09727 15.9599 2.06042 15.9038C2.02357 15.8477 1.99952 15.7841 1.98999 15.7177C1.98045 15.6512 1.98567 15.5834 2.00526 15.5192C2.07793 15.3146 2.19592 15.1291 2.35037 14.9768C2.48961 14.8228 2.6448 14.6844 2.78683 14.5332C3.17383 14.1232 3.58157 13.7332 4.00048 13.3568C4.83831 12.6036 5.7276 11.9088 6.61768 11.2196C7.07919 10.8081 7.61324 10.4866 8.19239 10.2716C8.34266 10.2275 8.49862 10.2041 8.65519 10.202Z" fill="#4A4A4A"/>
<path d="M12.9307 16.6024C11.8934 15.4043 10.8694 14.1947 9.85866 12.9736C9.39165 12.4412 9.02649 11.8271 8.78146 11.162C8.67774 10.8532 8.63585 10.527 8.65818 10.202C8.85044 10.1962 9.04186 10.2298 9.22072 10.3008C10.13 10.6672 10.7535 11.4872 11.3133 12.2564C11.8918 13.06 12.4131 13.9034 12.8736 14.7804C13.1582 15.2252 13.3687 15.7134 13.4968 16.226C13.5119 16.2977 13.5052 16.3724 13.4776 16.4402C13.4499 16.5081 13.4025 16.5661 13.3416 16.6066C13.2807 16.6472 13.209 16.6685 13.1359 16.6677C13.0628 16.667 12.9916 16.6442 12.9315 16.6024" fill="#4A4A4A"/>
<path d="M8.6543 10.1996C8.43477 10.2173 8.21411 10.1845 8.00918 10.1036C7.09994 9.7372 6.47636 8.9332 5.91661 8.164C5.33815 7.36036 4.81675 6.51695 4.35627 5.64C4.0715 5.19541 3.86088 4.70729 3.73269 4.1948C3.67603 3.8488 4.10093 3.5796 4.32714 3.7848L4.32993 3.7876C5.37841 4.99586 6.41226 6.2172 7.43148 7.4516C7.90414 7.97775 8.2763 8.58653 8.52943 9.2476C8.63139 9.55414 8.67378 9.87704 8.6543 10.1996Z" fill="#4A4A4A"/>
<path d="M15.2232 4.9008C15.1511 5.10605 15.033 5.292 14.8781 5.4444C14.7389 5.5984 14.5837 5.7368 14.4416 5.888C14.0546 6.298 13.6485 6.688 13.2296 7.0644C12.3917 7.816 11.5025 8.5112 10.6108 9.2016C10.1486 9.60821 9.61445 9.92434 9.03606 10.1336C8.91243 10.1704 8.78499 10.1928 8.65625 10.2004C8.66993 10.0066 8.71076 9.81563 8.77754 9.6332C9.27784 8.258 10.4233 7.3068 11.5412 6.436C12.2895 5.8155 13.0766 5.24366 13.8978 4.724L13.9038 4.7196C13.9633 4.6892 14.0255 4.65 14.0893 4.6092C14.0921 4.6092 14.0953 4.6048 14.0981 4.6032C14.2322 4.50681 14.3761 4.42489 14.5274 4.3588C14.5281 4.35791 14.529 4.3572 14.5301 4.35672C14.5311 4.35623 14.5322 4.35599 14.5334 4.356C14.6295 4.31568 14.7344 4.3012 14.8378 4.314C14.9043 4.32121 14.9684 4.34305 15.0255 4.37796C15.0827 4.41288 15.1314 4.46001 15.1682 4.51599C15.2051 4.57196 15.2292 4.63541 15.2387 4.70179C15.2483 4.76817 15.2431 4.83585 15.2236 4.9" fill="#4A4A4A"/>
<path d="M6.83789 2.5504C6.83789 2.04598 6.98708 1.55289 7.2666 1.13347C7.54611 0.714064 7.9434 0.387173 8.40822 0.194139C8.87303 0.00110505 9.38451 -0.0494014 9.87795 0.0490064C10.3714 0.147414 10.8247 0.390316 11.1804 0.746996C11.5362 1.10368 11.7784 1.55811 11.8766 2.05284C11.9748 2.54757 11.9244 3.06037 11.7318 3.5264C11.5393 3.99242 11.2133 4.39074 10.7949 4.67098C10.3766 4.95122 9.8848 5.1008 9.38168 5.1008C8.70703 5.1008 8.06 4.8321 7.58295 4.35381C7.1059 3.87551 6.83789 3.22681 6.83789 2.5504Z" fill="#4A4A4A"/>
</g>
<defs>
<clipPath id="clip0_2219_502">
<rect width="77" height="20" fill="white"/>
</clipPath>
</defs>
</svg>
