<svg width="17" height="17" viewBox="0 0 17 17" fill="none" xmlns="http://www.w3.org/2000/svg">
<g clip-path="url(#clip0_2219_249)">
<mask id="mask0_2219_249" style="mask-type:luminance" maskUnits="userSpaceOnUse" x="0" y="0" width="17" height="17">
<path d="M17 0H0V17H17V0Z" fill="white"/>
</mask>
<g mask="url(#mask0_2219_249)">
<path opacity="0.4" d="M14.6058 5.98543C13.862 2.71293 11.0074 1.23959 8.49995 1.23959C8.49995 1.23959 8.49995 1.23959 8.49286 1.23959C5.99245 1.23959 3.13078 2.70584 2.38703 5.97834C1.55828 9.63334 3.79661 12.7288 5.82245 14.6767C6.57328 15.3992 7.52953 16.6458 8.49286 16.6458C9.4562 16.6458 10.4266 15.3992 11.1704 14.6767C13.1962 12.7288 15.4345 9.64043 14.6058 5.98543Z" fill="#003E56"/>
<path d="M8.4998 9.53431C9.73209 9.53431 10.7311 8.53534 10.7311 7.30306C10.7311 6.07074 9.73209 5.07178 8.4998 5.07178C7.26752 5.07178 6.26855 6.07074 6.26855 7.30306C6.26855 8.53534 7.26752 9.53431 8.4998 9.53431Z" fill="black"/>
</g>
</g>
<defs>
<clipPath id="clip0_2219_249">
<rect width="17" height="17" fill="white"/>
</clipPath>
</defs>
</svg>
